PathFileType	4	(X/Y/Z)	C:/Users/beibeiliu/ov580/test_trc\sequence.19_training_dense_left.trc
DataRate	CameraRate	NumFrames	NumMarkers	Units	OrigDataRate	OrigDataStartFrame	OrigNumFrames
120	120	14	19	mm	120	87	344
Frame#	Time	ThumbCMC			ThumbMCP			ThumbIP			ThumbTip			IndexMCP			IndexPIP			IndexTip			MiddleMCP			MiddlePIP			MiddleTip			RingMCP			RingPIP			RingTip			PinkyMCP			PinkyPIP			PinkyTip			BackHand1			BackHand2			BackHand3	
		X0	Y0	Z0	X1	Y1	Z1	X2	Y2	Z2	X3	Y3	Z3	X4	Y4	Z4	X5	Y5	Z5	X6	Y6	Z6	X7	Y7	Z7	X8	Y8	Z8	X9	Y9	Z9	X10	Y10	Z10	X11	Y11	Z11	X12	Y12	Z12	X13	Y13	Z13	X14	Y14	Z14	X15	Y15	Z15	X16	Y16	Z16	X17	Y17	Z17	X18	Y18	Z18	
86	0.716667	-239.379	27.9582	69.1085	-211.956	10.2946	59.8087	-194.815	1.42129	48.7355	-185.536	-7.96627	21.7216	-191.763	36.8885	24.5155	-176.889	12.0117	26.8195	-202.942	5.74778	43.9784	-199.486	24.5466	8.21084	-192.111	-1.59356	16.6408	-220.336	10.8723	34.4126	-211.933	10.1901	3.90103	-213.502	-12.0335	21.3613	-231.504	-4.07275	36.3067	-228.435	2.20238	2.14575	-226.219	-12.5769	22.2235	-240.236	-9.9128	41.0157	-254.193	37.7801	16.6161	-271.039	43.2447	32.6354	-248.558	51.9175	46.7203	
87	0.725	-239.803	24.4507	71.4378	-212.374	8.57438	59.095	-198.433	5.10173	41.5904	-185.566	-3.22942	21.0646	-192.199	41.4542	25.3648	-180.254	17.6038	21.6315	-202.81	6.854	41.1908	-197.534	31.3631	10.6687	-192.678	3.68787	15.3386	-217.59	9.6454	32.9928	-216.165	17.4103	0.207227	-212.375	-5.57156	15.0784	-232.808	-0.133163	34.9697	-232.299	9.78851	0.830907	-231.282	-10.5488	17.3943	-241.32	-8.56665	37.7801	-256.036	44.8037	19.3973	-277.936	43.817	38.2342	-251.111	51.8031	51.0181	
88	0.733333	-239.044	20.0597	71.3541	-216.304	6.74472	55.3019	-195.647	4.61188	36.998	-193.273	5.23911	11.2428	-196.362	44.4499	31.3867	-182.121	19.3151	23.0009	-203.394	6.9301	35.6898	-199.864	39.1877	9.7248	-196.666	11.5877	9.53833	-217.001	12.5208	30.5897	-220.136	28.1405	1.33469	-214.047	3.08521	8.3789	-233.565	1.37104	28.4301	-234.315	19.7329	0.148739	-232.13	-0.981021	10.7432	-243.48	-6.97744	31.3066	-256.56	50.4856	29.4232	-277.414	47.575	43.6341	-247.191	50.3018	57.3489	
89	0.741667	-240.625	12.9434	69.0526	-218.955	3.09558	48.75	-203.869	6.24741	28.4192	-198.497	9.15511	7.51852	-194.676	43.0327	36.7556	-184.412	21.7319	21.8637	-205.365	6.23886	37.4293	-198.73	48.8311	17.3035	-192.12	22.988	7.90257	-216.863	15.9609	25.6642	-216.368	38.5529	6.10099	-215.889	11.6446	2.11696	-232.637	6.90918	23.8727	-238.94	32.2355	-0.160838	-235.816	7.19619	7.50742	-244.132	2.06133	31.3974	-255.674	54.5625	35.6925	-276.883	50.1475	51.5996	-245.982	47.0677	66.1633	
90	0.75	-241.153	5.25921	68.0173	-221.604	2.49841	41.6572	-203.586	7.03334	20.4428	-203.664	20.7473	0.470936	-196.074	43.7059	39.292	-183.644	28.2666	18.5565	-207.596	9.541	30.9837	-201.561	53.4627	26.4865	-189.432	37.5276	5.17543	-214.835	19.6707	20.4646	-217.293	47.891	11.6788	-215.294	22.0747	-0.924911	-237.587	13.5561	19.8445	-238.823	37.7051	-0.00325376	-235.83	16.1296	4.72717	-243.889	7.84314	26.2856	-251.232	53.6194	45.5899	-273.147	49.46	55.8257	-244.783	41.5966	72.7853	
91	0.758333	-238.552	5.07249	65.4951	-218.388	1.33327	38.4511	-205.828	9.13978	18.5212	-205.602	23.887	-0.443754	-190.952	45.2448	36.5481	-186.242	32.2125	15.5984	-206.22	12.804	26.9961	-201.496	57.1718	28.9043	-191.168	40.8903	3.72222	-214.092	23.4068	16.1304	-215.42	53.0447	7.50774	-217.746	30.8043	-4.6435	-236.176	18.3901	13.6383	-240.928	45.9215	4.83345	-240.81	19.4907	4.13797	-248.378	10.5789	28.2049	-250.438	56.3073	47.5705	-270.36	49.5402	61.0758	-243.069	40.5295	69.6955	
92	0.766667	-237.389	7.43248	63.9966	-220.248	6.07662	38.0022	-203.708	15.3166	17.0975	-206.597	29.4855	-1.64482	-196.574	49.8229	35.039	-186.957	35.7888	12.2078	-205.304	17.757	22.3087	-205.514	63.76	21.9674	-195.702	48.021	-0.502914	-213.93	26.1277	16.8027	-221.273	56.3994	4.77949	-220.002	30.9602	-5.55689	-232.789	18.4701	13.4016	-242.823	45.5616	0.456913	-239.717	20.8765	3.34032	-245.103	14.1227	29.6891	-254.668	58.3091	43.6768	-273.33	46.7536	62.7049	-247.999	42.3819	67.8254	
93	0.775	-235.307	13.6958	63.1915	-214.061	12.366	36.6835	-203.62	16.9693	19.1369	-197.58	25.7683	-3.99462	-195.741	56.3032	33.8638	-184.706	42.3793	10.6769	-203.718	20.7866	25.8616	-203.179	65.1936	14.2092	-196.08	46.7748	-4.22742	-217.035	29.4523	14.8113	-222.318	54.656	-2.0327	-219.167	31.1977	-7.0679	-231.568	18.9596	17.3358	-240.102	44.2962	-1.04576	-236.22	19.767	3.11434	-243.248	14.3621	28.5755	-253.329	59.7713	42.2929	-270.904	47.3681	58.1632	-246.086	47.5306	66.4403	
94	0.783333	-235.269	24.6981	63.5815	-208.105	18.0441	41.8534	-193.651	24.6483	21.0305	-191.985	28.9331	0.703519	-196.642	65.1423	24.1004	-188.168	47.9809	6.54517	-201.545	29.7598	25.0598	-205.778	65.1358	5.79213	-196.615	39.8762	-4.55912	-219.101	29.4221	18.349	-223.481	50.634	-6.10648	-215.246	27.074	-5.20476	-232.38	17.1696	19.2442	-239.474	38.4941	-5.11745	-235.849	16.0269	-0.903061	-238.605	9.61264	27.2286	-257.688	57.5798	33.3452	-275.994	49.5425	50.2343	-250.771	54.1861	57.3736	
95	0.791667	-235.647	38.8139	61.984	-207.277	33.939	47.7636	-193.041	40.445	26.3242	-181.23	37.2352	7.49794	-203.259	73.7399	12.201	-189.275	52.3046	5.91999	-208.117	41.715	27.6592	-211.18	60.8626	-5.4477	-193.732	39.4711	-4.81775	-217.007	29.2071	19.9083	-222.182	41.1217	-11.2448	-210.489	22.3564	-1.87343	-225.008	17.6895	21.9499	-238.226	27.4685	-10.208	-224.451	9.80622	8.48593	-229.077	12.9711	31.6796	-263.338	54.1013	16.8863	-278.29	42.6129	39.6657	-255.283	61.6136	48.8129	
96	0.8	-241.631	52.6978	53.2143	-213.392	55.2661	42.5537	-191.076	61.4845	28.3427	-179.956	54.6163	10.1563	-211.358	74.076	1.00474	-188.563	61.0131	9.28409	-213.45	50.9662	26.8275	-212.191	52.4548	-9.4573	-189.882	36.9258	3.48112	-210.968	31.77	26.0113	-211.87	34.2619	-8.61535	-199.883	23.7045	13.3314	-221.68	23.4017	29.6486	-219.454	16.5684	-4.5138	-210.256	12.5049	17.7406	-222.525	14.6807	37.5401	-261.567	35.3163	4.63688	-279.375	28.9397	23.7695	-264.236	55.5267	32.8906	
97	0.808333	-251.128	57.0645	40.4077	-224.537	69.5886	34.7532	-206.584	75.1945	22.6006	-183.704	72.7449	6.66978	-214.112	69.9142	-8.62207	-191.288	63.9073	11.2129	-218.404	55.0414	23.8359	-204.807	43.8766	-11.0096	-186.19	44.1222	13.6551	-211.703	41.4998	31.5177	-202.129	29.2129	-3.21037	-195.078	28.0614	22.7174	-221.57	28.3611	33.3163	-206.164	12.719	2.99567	-200.708	20.4845	27.1333	-220.419	24.1553	42.9872	-253.15	22.8457	-0.0925451	-271.939	13.2656	22.4796	-264.046	43.6941	13.637	
98	0.816667	-258.283	60.3904	30.0154	-234.734	78.7497	24.5363	-213.574	84.3835	8.61466	-194.661	82.2856	0.281762	-209.862	62.3831	-12.8397	-193.52	66.4266	11.1816	-218.608	57.6205	22.8883	-198.652	43.84	-8.07358	-184.906	52.2081	15.1092	-215.948	46.2016	31.8357	-195.198	28.957	3.59092	-193.443	35.1597	27.8676	-220.807	34.6402	33.5526	-198.502	14.9973	10.645	-197.846	27.7725	31.7851	-222.252	29.5123	43.4244	-242.638	13.602	0.509783	-264.362	6.49319	21.5593	-263.659	37.3759	10.357	
99	0.825	-256.392	56.6485	22.5102	-236.895	77.185	14.5612	-219.269	85.9555	4.10297	-199.764	88.5491	-3.81228	-204.414	62.35	-12.1277	-192.101	69.0809	10.1619	-220.404	58.5023	21.7564	-195.986	44.2294	-6.22519	-187.478	56.7114	20.8217	-218.462	50.0262	30.9718	-190.576	31.933	8.90478	-195.89	43.7801	30.253	-223.29	38.6579	30.8578	-196.072	17.8579	12.608	-194.954	31.6543	33.8894	-219.368	32.8399	39.8751	-238.361	9.07027	2.60873	-258.894	6.86004	19.4452	-261.464	30.5008	6.20174	
